<svg xmlns="http://www.w3.org/2000/svg" viewBox="0 0 16 16"><defs><style>.cls-1{fill:#020202;fill-rule:evenodd;}.cls-2{fill:none;}</style></defs><g id="Capa_2" data-name="Capa 2"><g id="Capa_1-2" data-name="Capa 1"><path class="cls-1" d="M10.59,10.12a1.62,1.62,0,0,1-.78.4c.38,0,.91-.21,1.25,0-.13.23-.61.33-.85.42l.75,0c-.25.35-.68.29-1.07.53a2.33,2.33,0,0,1,.65.11l-1.71.34a16.75,16.75,0,0,1-5.62-.34,13.41,13.41,0,0,0,3,2.63c1.69,1.05,2.35,1,4-.07a18.9,18.9,0,0,0,3-2.6c.61-.7,2.25-2.57,2.39-3.26-.61,0-1.47.28-2.12.4s-1.47.25-2.22.34-5,.49-5.67-.07a1.41,1.41,0,0,1,.57-.11c-.3-.19-.81-.2-.94-.5l.8,0c-.3-.12-.74-.18-.88-.48L6.17,8a1.74,1.74,0,0,1-.67-.4c.33-.15.9.2,1.32.17a1.14,1.14,0,0,1-.48-.55A7.7,7.7,0,0,0,14.84,5c1.42-1.64-.42-2.94-2-3.16A5.16,5.16,0,0,0,8.25,3.51C7.08,1.88,5.73.78,3.49,1.14c-4.1.65-4,5.64.51,8.16a6.77,6.77,0,0,0,4.37.94,10.61,10.61,0,0,0,1.3-.54c-.15.37-.28.33-.54.6A10,10,0,0,1,10.59,10.12Z"/><rect class="cls-2" width="16" height="16"/></g></g></svg>